<svg xmlns="http://www.w3.org/2000/svg" viewBox="0 0 49 49" fill="#111">
<rect x="10" y="6" width="4" height="1"/>
<rect x="34" y="6" width="5" height="1"/>
<rect x="8" y="7" width="7" height="1"/>
<rect x="33" y="7" width="7" height="1"/>
<rect x="7" y="8" width="10" height="1"/>
<rect x="32" y="8" width="9" height="1"/>
<rect x="6" y="9" width="11" height="1"/>
<rect x="31" y="9" width="11" height="1"/>
<rect x="6" y="10" width="12" height="1"/>
<rect x="30" y="10" width="13" height="1"/>
<rect x="5" y="11" width="14" height="1"/>
<rect x="29" y="11" width="14" height="1"/>
<rect x="5" y="12" width="15" height="1"/>
<rect x="28" y="12" width="15" height="1"/>
<rect x="5" y="13" width="16" height="1"/>
<rect x="27" y="13" width="17" height="1"/>
<rect x="5" y="14" width="16" height="1"/>
<rect x="27" y="14" width="17" height="1"/>
<rect x="7" y="15" width="7" height="1"/>
<rect x="16" y="15" width="4" height="1"/>
<rect x="28" y="15" width="4" height="1"/>
<rect x="34" y="15" width="7" height="1"/>
<rect x="8" y="16" width="6" height="1"/>
<rect x="16" y="16" width="5" height="1"/>
<rect x="27" y="16" width="5" height="1"/>
<rect x="34" y="16" width="6" height="1"/>
<rect x="9" y="17" width="5" height="1"/>
<rect x="16" y="17" width="6" height="1"/>
<rect x="26" y="17" width="6" height="1"/>
<rect x="34" y="17" width="5" height="1"/>
<rect x="10" y="18" width="4" height="1"/>
<rect x="16" y="18" width="7" height="1"/>
<rect x="25" y="18" width="7" height="1"/>
<rect x="34" y="18" width="4" height="1"/>
<rect x="11" y="19" width="2" height="1"/>
<rect x="16" y="19" width="16" height="1"/>
<rect x="35" y="19" width="2" height="1"/>
<rect x="16" y="20" width="16" height="1"/>
<rect x="16" y="21" width="16" height="1"/>
<rect x="17" y="22" width="15" height="1"/>
<rect x="18" y="23" width="13" height="1"/>
<rect x="18" y="24" width="12" height="1"/>
<rect x="18" y="25" width="12" height="1"/>
<rect x="17" y="26" width="14" height="1"/>
<rect x="16" y="27" width="16" height="1"/>
<rect x="15" y="28" width="18" height="1"/>
<rect x="14" y="29" width="20" height="1"/>
<rect x="13" y="30" width="22" height="1"/>
<rect x="12" y="31" width="10" height="1"/>
<rect x="26" y="31" width="10" height="1"/>
<rect x="11" y="32" width="11" height="1"/>
<rect x="27" y="32" width="10" height="1"/>
<rect x="10" y="33" width="11" height="1"/>
<rect x="28" y="33" width="10" height="1"/>
<rect x="9" y="34" width="10" height="1"/>
<rect x="29" y="34" width="10" height="1"/>
<rect x="8" y="35" width="10" height="1"/>
<rect x="30" y="35" width="10" height="1"/>
<rect x="7" y="36" width="11" height="1"/>
<rect x="31" y="36" width="10" height="1"/>
<rect x="6" y="37" width="11" height="1"/>
<rect x="32" y="37" width="10" height="1"/>
<rect x="7" y="38" width="9" height="1"/>
<rect x="33" y="38" width="9" height="1"/>
<rect x="7" y="39" width="8" height="1"/>
<rect x="33" y="39" width="8" height="1"/>
<rect x="8" y="40" width="6" height="1"/>
<rect x="34" y="40" width="6" height="1"/>
<rect x="9" y="41" width="4" height="1"/>
<rect x="35" y="41" width="4" height="1"/>
<rect x="37" y="42" width="1" height="1"/>
</svg>
